<svg width="364" height="120" viewBox="0 0 364 120" fill="none" xmlns="http://www.w3.org/2000/svg">
<path d="M47.0215 76.4473H19.4824L13.7207 93H0.878906L27.7344 21.9062H38.8184L65.7227 93H52.832L47.0215 76.4473ZM22.9492 66.4863H43.5547L33.252 36.9941L22.9492 66.4863Z" fill="black"/>
<path d="M194.229 21.9062V69.416C194.229 76.9681 191.803 82.9577 186.953 87.3848C182.135 91.7793 175.706 93.9766 167.666 93.9766C159.528 93.9766 153.066 91.8118 148.281 87.4824C143.496 83.1204 141.104 77.082 141.104 69.3672V21.9062H153.408V69.4648C153.408 74.2174 154.613 77.847 157.021 80.3535C159.43 82.86 162.979 84.1133 167.666 84.1133C177.171 84.1133 181.924 79.1003 181.924 69.0742V21.9062H194.229ZM263.857 93H251.504L219.814 42.5605V93H207.461V21.9062H219.814L251.602 72.541V21.9062H263.857V93Z" fill="black"/>
<path d="M318.252 76.4473H290.713L284.951 93H272.109L298.965 21.9062H310.049L336.953 93H324.062L318.252 76.4473ZM294.18 66.4863H314.785L304.482 36.9941L294.18 66.4863Z" fill="#A52F2F"/>
<path d="M318.252 76.4473H290.713L284.951 93H272.109L298.965 21.9062H310.049L336.953 93H324.062L318.252 76.4473ZM294.18 66.4863H314.785L304.482 36.9941L294.18 66.4863Z" fill="url(#paint0_linear)"/>
<path d="M108.004 81.2324H76.9004V93H122.652V21.9062H108.004V81.2324Z" fill="#A52F2F"/>
<path d="M108.004 81.2324H76.9004V93H122.652V21.9062H108.004V81.2324Z" fill="url(#paint1_linear)"/>
<path d="M107 26C161 95 269.5 92.5 316.5 26" stroke="white" stroke-width="7"/>
<defs>
<linearGradient id="paint0_linear" x1="249.5" y1="0" x2="249.5" y2="120" gradientUnits="userSpaceOnUse">
<stop stop-color="#563BBE"/>
<stop offset="0.552083" stop-color="#DA6641"/>
</linearGradient>
<linearGradient id="paint1_linear" x1="92.5" y1="0" x2="92.5" y2="120" gradientUnits="userSpaceOnUse">
<stop stop-color="#563BBE"/>
<stop offset="0.52657" stop-color="#DA6641"/>
</linearGradient>
</defs>
</svg>
